<svg width="60" height="60" viewBox="0 0 60 60" fill="none" xmlns="http://www.w3.org/2000/svg">
  <defs>
    <linearGradient id="techGradient" x1="0%" y1="0%" x2="100%" y2="100%">
      <stop offset="0%" style="stop-color:#06B6D4;stop-opacity:1" />
      <stop offset="50%" style="stop-color:#3B82F6;stop-opacity:1" />
      <stop offset="100%" style="stop-color:#8B5CF6;stop-opacity:1" />
    </linearGradient>
    <linearGradient id="accentGradient" x1="0%" y1="0%" x2="100%" y2="100%">
      <stop offset="0%" style="stop-color:#F59E0B;stop-opacity:1" />
      <stop offset="100%" style="stop-color:#EF4444;stop-opacity:1" />
    </linearGradient>
  </defs>
  
  <!-- Background hexagon -->
  <polygon points="30,5 45,15 45,35 30,45 15,35 15,15" fill="url(#techGradient)" opacity="0.1"/>
  
  <!-- Main hexagon -->
  <polygon points="30,8 42,16 42,32 30,40 18,32 18,16" fill="url(#techGradient)"/>
  
  <!-- Letter "I" - Tech style -->
  <rect x="22" y="20" width="3" height="20" rx="1.5" fill="white"/>
  <rect x="20" y="20" width="7" height="2" rx="1" fill="white"/>
  <rect x="20" y="38" width="7" height="2" rx="1" fill="white"/>
  
  <!-- Letter "F" - Tech style -->
  <rect x="28" y="20" width="3" height="20" rx="1.5" fill="white"/>
  <rect x="28" y="20" width="10" height="2" rx="1" fill="white"/>
  <rect x="28" y="30" width="6" height="2" rx="1" fill="white"/>
  
  <!-- Tech accent - Code brackets -->
  <path d="M12 25 L8 30 L12 35" stroke="url(#accentGradient)" stroke-width="2" fill="none" stroke-linecap="round"/>
  <path d="M48 25 L52 30 L48 35" stroke="url(#accentGradient)" stroke-width="2" fill="none" stroke-linecap="round"/>
  
  <!-- Subtle glow -->
  <polygon points="30,8 42,16 42,32 30,40 18,32 18,16" fill="none" stroke="url(#techGradient)" stroke-width="1" opacity="0.3"/>
</svg>
